<svg width="208" height="200" viewBox="0 0 208 200" fill="none" xmlns="http://www.w3.org/2000/svg">
    <path d="M60.5437 0H10C4.47715 0 0 4.47716 0 10V190C0 195.523 4.47715 200 10 200H198C203.523 200 208 195.523 208 190V51.7582C208 46.2354 203.523 41.7582 198 41.7582H131.035C129.109 41.7582 127.224 41.2019 125.606 40.156L65.973 1.60223C64.3553 0.556371 62.47 0 60.5437 0Z" fill="#2BA0FF"/>
    <path d="M47 129.524L24.866 136.958V129.608L34.022 127.298C34.498 127.158 35.086 127.018 35.786 126.878C36.458 126.71 37.116 126.556 37.76 126.416C38.404 126.248 38.936 126.108 39.356 125.996V125.744C38.74 125.576 38.11 125.422 37.466 125.282C36.822 125.142 36.192 125.002 35.576 124.862C34.96 124.694 34.428 124.554 33.98 124.442L24.866 122.174V115.118L34.022 112.808C34.414 112.696 34.932 112.57 35.576 112.43C36.22 112.29 36.878 112.136 37.55 111.968C38.222 111.8 38.824 111.66 39.356 111.548V111.254C38.88 111.17 38.334 111.058 37.718 110.918C37.102 110.75 36.472 110.582 35.828 110.414C35.156 110.246 34.582 110.106 34.106 109.994L24.866 107.642V100.964L47 108.398V115.286L38.138 117.596C37.634 117.708 37.06 117.848 36.416 118.016C35.772 118.184 35.142 118.338 34.526 118.478C33.91 118.618 33.378 118.744 32.93 118.856V119.024C33.238 119.08 33.658 119.178 34.19 119.318C34.722 119.43 35.324 119.57 35.996 119.738C36.668 119.878 37.368 120.06 38.096 120.284L47 122.636V129.524ZM47.504 87.4662C47.504 89.9862 47.098 92.1282 46.286 93.8922C45.446 95.6562 44.172 97.0142 42.464 97.9662C40.756 98.8902 38.572 99.3522 35.912 99.3522C33.308 99.3522 31.152 98.8902 29.444 97.9662C27.736 97.0422 26.462 95.7122 25.622 93.9762C24.782 92.2402 24.362 90.1542 24.362 87.7182C24.362 85.3102 24.768 83.2802 25.58 81.6282C26.392 79.9482 27.638 78.6742 29.318 77.8062C30.998 76.9382 33.168 76.5042 35.828 76.5042H37.298V92.3802C38.474 92.3802 39.468 92.2122 40.28 91.8762C41.092 91.5402 41.708 91.0222 42.128 90.3222C42.548 89.6222 42.758 88.6842 42.758 87.5082C42.758 86.8082 42.674 86.1922 42.506 85.6602C42.338 85.1282 42.1 84.6802 41.792 84.3162C41.456 83.9522 41.064 83.6722 40.616 83.4762C40.168 83.2802 39.664 83.1822 39.104 83.1822V76.5042C40.448 76.5042 41.652 76.7562 42.716 77.2602C43.752 77.7362 44.634 78.4502 45.362 79.4022C46.062 80.3542 46.594 81.5162 46.958 82.8882C47.322 84.2322 47.504 85.7582 47.504 87.4662ZM33.476 92.3382V83.5182C32.748 83.5182 32.118 83.6162 31.586 83.8122C31.026 83.9802 30.564 84.2462 30.2 84.6102C29.836 84.9462 29.57 85.3662 29.402 85.8702C29.206 86.3462 29.108 86.9062 29.108 87.5502C29.108 88.5582 29.276 89.3982 29.612 90.0702C29.948 90.7422 30.438 91.2602 31.082 91.6242C31.726 91.9882 32.524 92.2262 33.476 92.3382ZM47.504 58.9843C47.504 60.4123 47.21 61.7283 46.622 62.9323C46.034 64.1363 45.138 65.1023 43.934 65.8303V66.1243L47 66.6283V72.2563H16.592L16.592 65.3683H27.134V65.1163C26.546 64.6683 26.042 64.1363 25.622 63.5203C25.202 62.8763 24.894 62.1623 24.698 61.3783C24.474 60.5943 24.362 59.7543 24.362 58.8583C24.362 57.0383 24.782 55.4563 25.622 54.1123C26.462 52.7683 27.736 51.7323 29.444 51.0043C31.124 50.2763 33.266 49.9123 35.87 49.9123C38.53 49.9123 40.714 50.2763 42.422 51.0043C44.13 51.7323 45.404 52.7823 46.244 54.1543C47.084 55.4983 47.504 57.1083 47.504 58.9843ZM42.128 61.1263C42.128 60.0903 41.932 59.2643 41.54 58.6483C41.12 58.0043 40.504 57.5423 39.692 57.2623C38.88 56.9823 37.886 56.8423 36.71 56.8423H35.24C34.036 56.8423 33.028 56.9823 32.216 57.2623C31.404 57.5423 30.788 58.0043 30.368 58.6483C29.948 59.2643 29.738 60.0903 29.738 61.1263C29.738 61.8823 29.878 62.5403 30.158 63.1003C30.438 63.6323 30.83 64.0803 31.334 64.4443C31.838 64.7803 32.44 65.0323 33.14 65.2003C33.84 65.3403 34.61 65.4103 35.45 65.4103H36.458C37.606 65.4103 38.614 65.2703 39.482 64.9903C40.322 64.6823 40.98 64.2203 41.456 63.6043C41.904 62.9603 42.128 62.1343 42.128 61.1263ZM54.812 45.6782H24.866V40.0502L27.932 39.4622V39.1682C26.672 38.4122 25.762 37.4602 25.202 36.3122C24.642 35.1362 24.362 33.8342 24.362 32.4062C24.362 30.5302 24.782 28.9202 25.622 27.5762C26.462 26.2042 27.736 25.1542 29.444 24.4262C31.152 23.6982 33.322 23.3342 35.954 23.3342C38.558 23.3342 40.714 23.6982 42.422 24.4262C44.13 25.1542 45.404 26.1902 46.244 27.5342C47.084 28.8782 47.504 30.4602 47.504 32.2802C47.504 33.1762 47.406 34.0162 47.21 34.8002C47.014 35.5842 46.706 36.2982 46.286 36.9422C45.866 37.5582 45.348 38.0902 44.732 38.5382V38.7902H54.812V45.6782ZM42.128 34.5482C42.128 33.5122 41.918 32.6862 41.498 32.0702C41.078 31.4262 40.462 30.9642 39.65 30.6842C38.838 30.4042 37.844 30.2642 36.668 30.2642H35.198C34.022 30.2642 33.028 30.4042 32.216 30.6842C31.376 30.9642 30.76 31.4262 30.368 32.0702C29.948 32.6862 29.738 33.5122 29.738 34.5482C29.738 35.5562 29.976 36.3822 30.452 37.0262C30.9 37.6422 31.558 38.1042 32.426 38.4122C33.266 38.6922 34.26 38.8322 35.408 38.8322H36.416C37.256 38.8322 38.026 38.7622 38.726 38.6222C39.426 38.4542 40.028 38.2022 40.532 37.8662C41.036 37.5022 41.428 37.0542 41.708 36.5222C41.988 35.9622 42.128 35.3042 42.128 34.5482Z" fill="white"/>
    <circle cx="35.5" cy="162.5" r="17.5" fill="#2271B1"/>
    <path d="M30 159.6C30 159.6 34.9 154 35.6 154C36.3 154 41.2 159.6 41.2 159.6" stroke="white" stroke-width="4" stroke-linecap="round"/>
    <path d="M35.6 170.8V154" stroke="white" stroke-width="4" stroke-linecap="round"/>
    <path d="M6.11328 195.822C7.22397 196.566 8.55661 197 10 197H17.833V200H10C7.94344 200 6.03274 199.378 4.44336 198.313L6.11328 195.822Z" fill="#2271B1"/>
    <path d="M38.7227 200H23.0557V197H38.7227V200Z" fill="#2271B1"/>
    <path d="M59.6113 200H43.9443V197H59.6113V200Z" fill="#2271B1"/>
    <path d="M80.5 200H64.833V197H80.5V200Z" fill="#2271B1"/>
    <path d="M101.389 200H85.7227V197H101.389V200Z" fill="#2271B1"/>
    <path d="M122.277 200H106.611V197H122.277V200Z" fill="#2271B1"/>
    <path d="M143.167 200H127.5V197H143.167V200Z" fill="#2271B1"/>
    <path d="M164.056 200H148.389V197H164.056V200Z" fill="#2271B1"/>
    <path d="M184.944 200H169.277V197H184.944V200Z" fill="#2271B1"/>
    <path d="M203.556 198.313C201.966 199.378 200.056 200 198 200H190.167V197H198C199.443 197 200.776 196.566 201.887 195.822L203.556 198.313Z" fill="#2271B1"/>
    <path d="M3 190C3 191.443 3.43418 192.776 4.17773 193.887L1.68555 195.556C0.621572 193.967 0 192.056 0 190V182.5H3V190Z" fill="#2271B1"/>
    <path d="M208 190C208 192.056 207.378 193.966 206.313 195.556L203.822 193.887C204.566 192.776 205 191.443 205 190V182.594H208V190Z" fill="#2271B1"/>
    <path d="M208 177.657H205V162.846H208V177.657Z" fill="#2271B1"/>
    <path d="M3 177.5H0V162.5H3V177.5Z" fill="#2271B1"/>
    <path d="M208 157.908H205V143.097H208V157.908Z" fill="#2271B1"/>
    <path d="M3 157.5H0V142.5H3V157.5Z" fill="#2271B1"/>
    <path d="M208 138.159H205V123.348H208V138.159Z" fill="#2271B1"/>
    <path d="M3 137.5H0V122.5H3V137.5Z" fill="#2271B1"/>
    <path d="M208 118.41H205V103.599H208V118.41Z" fill="#2271B1"/>
    <path d="M3 117.5H0V102.5H3V117.5Z" fill="#2271B1"/>
    <path d="M208 98.6621H205V83.8496H208V98.6621Z" fill="#2271B1"/>
    <path d="M3 97.5H0V82.5H3V97.5Z" fill="#2271B1"/>
    <path d="M208 78.9131H205V64.1016H208V78.9131Z" fill="#2271B1"/>
    <path d="M3 77.5H0V62.5H3V77.5Z" fill="#2271B1"/>
    <path d="M206.314 46.2021C207.378 47.7913 208 49.7022 208 51.7582V59.1641H205V51.7578C205 50.3145 204.566 48.9817 203.822 47.8711L206.314 46.2021Z" fill="#2271B1"/>
    <path d="M3 57.5H0V42.5H3V57.5Z" fill="#2271B1"/>
    <path d="M198 41.7582C200.056 41.7582 201.967 42.3795 203.556 43.4434L201.887 45.9355C200.776 45.1921 199.443 44.7578 198 44.7578H189.63V41.7578L198 41.7582Z" fill="#2271B1"/>
    <path d="M125.606 40.156C127.224 41.2019 129.109 41.7582 131.035 41.7582L139.406 41.7578V44.7578H131.035C128.531 44.7578 126.08 44.0352 123.978 42.6758L118.387 39.0605L120.016 36.542L125.606 40.156Z" fill="#2271B1"/>
    <path d="M161.728 44.7578H144.986V41.7578H161.728V44.7578Z" fill="#2271B1"/>
    <path d="M184.049 44.7578H167.308V41.7578H184.049V44.7578Z" fill="#2271B1"/>
    <path d="M3 37.5H0V22.5H3V37.5Z" fill="#2271B1"/>
    <path d="M116.287 34.1318L114.659 36.6514L103.479 29.4229L105.106 26.9033L116.287 34.1318Z" fill="#2271B1"/>
    <path d="M101.379 24.4932L99.751 27.0127L88.5703 19.7842L90.1982 17.2646L101.379 24.4932Z" fill="#2271B1"/>
    <path d="M4.17773 6.11328C3.43417 7.22397 3 8.55661 3 10V17.5H0V10C5.75732e-07 7.94364 0.621295 6.03265 1.68555 4.44336L4.17773 6.11328Z" fill="#2271B1"/>
    <path d="M86.4717 14.8545L84.8428 17.374L73.6621 10.1455L75.29 7.62598L86.4717 14.8545Z" fill="#2271B1"/>
    <path d="M60.5437 0C62.47 0 64.3553 0.556371 65.973 1.60223L71.5625 5.2168L69.9346 7.73633L64.3438 4.12109C63.2116 3.38926 61.8921 3.00005 60.5439 3H54.2256V0H60.5437Z" fill="#2271B1"/>
    <path d="M16.3184 3H10C8.55661 3 7.22397 3.43417 6.11328 4.17773L4.44336 1.68555C6.03265 0.621295 7.94364 1.91905e-07 10 0H16.3184V3Z" fill="#2271B1"/>
    <path d="M33.166 3H20.5303V0H33.166V3Z" fill="#2271B1"/>
    <path d="M50.0137 3H37.3779V0H50.0137V3Z" fill="#2271B1"/>
    <path fill-rule="evenodd" clip-rule="evenodd" d="M136.042 87C137.676 87 139 88.3242 139 89.9577V154.042C139 155.676 137.676 157 136.042 157H71.9577L71.8056 156.996C70.2428 156.917 69 155.625 69 154.042V89.9577C69 88.3242 70.3242 87 71.9577 87H136.042ZM73.9296 137.282L85.4486 125.763C86.1801 125.032 87.3523 124.99 88.1339 125.667L100.105 136.043C100.905 136.735 102.107 136.674 102.832 135.904L115.917 122.001C116.679 121.191 117.961 121.172 118.747 121.959L134.07 137.282V91.9296H73.9296V137.282Z" fill="white"/>
    <path d="M102.887 107.174C102.887 110.888 99.8758 113.899 96.1619 113.899C92.4479 113.899 89.4372 110.888 89.4372 107.174C89.4372 103.46 92.4479 100.449 96.1619 100.449C99.8758 100.449 102.887 103.46 102.887 107.174Z" fill="white"/>
</svg>
